<?xml version="1.0" standalone="no"?>
<!DOCTYPE svg PUBLIC "-//W3C//DTD SVG 20010904//EN"
 "http://www.w3.org/TR/2001/REC-SVG-20010904/DTD/svg10.dtd">
<svg version="1.0" xmlns="http://www.w3.org/2000/svg"
 width="485.000000pt" height="522.000000pt" viewBox="0 0 485.000000 522.000000"
 preserveAspectRatio="xMidYMid meet">

<g transform="translate(0.000000,522.000000) scale(0.100000,-0.100000)"
fill="#000000" stroke="none">
<path d="M2380 3926 c-36 -20 -49 -51 -52 -119 l-3 -59 -55 -23 c-305 -126
-872 -371 -898 -387 -46 -28 -75 -90 -74 -158 3 -140 54 -424 113 -629 78
-269 234 -589 371 -763 l29 -38 22 24 c47 51 63 73 79 107 l16 36 -55 79 c-72
102 -172 310 -217 447 -63 193 -115 491 -101 582 6 46 44 111 79 137 20 14
678 298 691 298 3 0 5 -19 5 -43 l0 -42 -327 -140 c-366 -157 -363 -154 -363
-254 0 -182 80 -500 180 -717 68 -147 190 -317 190 -264 0 4 25 52 55 105 l54
96 -39 60 c-72 112 -120 261 -140 438 -10 86 -9 97 10 136 15 30 34 49 68 68
57 31 285 127 302 127 7 0 10 -15 8 -41 l-3 -41 -143 -62 c-85 -36 -148 -69
-155 -81 -16 -29 8 -201 44 -310 29 -89 87 -206 105 -212 5 -1 25 29 44 68 19
39 38 73 43 76 4 2 19 -10 33 -27 36 -42 74 -60 129 -60 139 0 215 157 127
262 l-27 32 -5 628 c-5 617 -5 628 -26 648 -26 27 -82 34 -114 16z"/>
</g>
</svg>
